<svg xmlns="http://www.w3.org/2000/svg" xmlns:xlink="http://www.w3.org/1999/xlink" width="500" zoomAndPan="magnify" viewBox="0 0 375 374.999991" height="500" preserveAspectRatio="xMidYMid meet" version="1.0"><defs><g/><clipPath id="72c5901979"><path d="M 95 123 L 375 123 L 375 375 L 95 375 Z M 95 123 " clip-rule="nonzero"/></clipPath><clipPath id="5748570ab1"><path d="M 95.238281 293.679688 L 265.769531 123.152344 L 452.648438 310.03125 L 282.117188 480.558594 Z M 95.238281 293.679688 " clip-rule="nonzero"/></clipPath><clipPath id="619a946047"><path d="M 0.0390625 0.121094 L 280 0.121094 L 280 252 L 0.0390625 252 Z M 0.0390625 0.121094 " clip-rule="nonzero"/></clipPath><clipPath id="1e4ed27d02"><path d="M 0.238281 170.679688 L 170.769531 0.152344 L 357.648438 187.03125 L 187.117188 357.558594 Z M 0.238281 170.679688 " clip-rule="nonzero"/></clipPath><clipPath id="b6c8fb484c"><rect x="0" width="280" y="0" height="252"/></clipPath><clipPath id="d7865e03a4"><path d="M 130.292969 135.769531 L 235.304688 135.769531 L 235.304688 303.101562 L 130.292969 303.101562 Z M 130.292969 135.769531 " clip-rule="nonzero"/></clipPath><clipPath id="f02216d236"><path d="M 0.292969 0.769531 L 105.304688 0.769531 L 105.304688 168.101562 L 0.292969 168.101562 Z M 0.292969 0.769531 " clip-rule="nonzero"/></clipPath><clipPath id="0cd6b8557b"><rect x="0" width="106" y="0" height="169"/></clipPath><clipPath id="258569442e"><path d="M 117 106 L 169 106 L 169 162 L 117 162 Z M 117 106 " clip-rule="nonzero"/></clipPath><clipPath id="bfd4bd5678"><path d="M 138.546875 106.636719 L 168.527344 123.402344 L 147.152344 161.632812 L 117.167969 144.867188 Z M 138.546875 106.636719 " clip-rule="nonzero"/></clipPath><clipPath id="b3a095ce9d"><path d="M 0.121094 0.558594 L 51.71875 0.558594 L 51.71875 55.761719 L 0.121094 55.761719 Z M 0.121094 0.558594 " clip-rule="nonzero"/></clipPath><clipPath id="a2f1d5b9cb"><path d="M 21.546875 0.636719 L 51.527344 17.402344 L 30.152344 55.632812 L 0.167969 38.867188 Z M 21.546875 0.636719 " clip-rule="nonzero"/></clipPath><clipPath id="49e22b3d8f"><rect x="0" width="52" y="0" height="56"/></clipPath><clipPath id="1a34136a85"><path d="M 168 110 L 220 110 L 220 166 L 168 166 Z M 168 110 " clip-rule="nonzero"/></clipPath><clipPath id="ad766e3a43"><path d="M 189.90625 110.089844 L 219.886719 126.851562 L 198.507812 165.082031 L 168.527344 148.316406 Z M 189.90625 110.089844 " clip-rule="nonzero"/></clipPath><clipPath id="9f645c9f65"><path d="M 0.480469 0 L 52 0 L 52 55.121094 L 0.480469 55.121094 Z M 0.480469 0 " clip-rule="nonzero"/></clipPath><clipPath id="2fd802943b"><path d="M 21.90625 0.0898438 L 51.886719 16.851562 L 30.507812 55.082031 L 0.527344 38.316406 Z M 21.90625 0.0898438 " clip-rule="nonzero"/></clipPath><clipPath id="9d27d380f2"><rect x="0" width="52" y="0" height="56"/></clipPath></defs><rect x="-37.5" width="450" fill="#ffffff" y="-37.499999" height="449.999989" fill-opacity="1"/><rect x="-37.5" width="450" fill="#fdf2eb" y="-37.499999" height="449.999989" fill-opacity="1"/><g clip-path="url(#72c5901979)"><g clip-path="url(#5748570ab1)"><g transform="matrix(1, 0, 0, 1, 95, 123)"><g clip-path="url(#b6c8fb484c)"><g clip-path="url(#619a946047)"><g clip-path="url(#1e4ed27d02)"><path fill="#005b82" d="M 0.238281 170.679688 L 170.769531 0.152344 L 357.953125 187.335938 L 187.421875 357.863281 Z M 0.238281 170.679688 " fill-opacity="1" fill-rule="nonzero"/></g></g></g></g></g></g><g clip-path="url(#d7865e03a4)"><g transform="matrix(1, 0, 0, 1, 130, 135)"><g clip-path="url(#0cd6b8557b)"><g clip-path="url(#f02216d236)"><path fill="#005b82" d="M 0.292969 168.101562 L 0.292969 0.742188 L 105.304688 0.742188 L 105.304688 168.101562 Z M 0.292969 168.101562 " fill-opacity="1" fill-rule="nonzero"/></g></g></g></g><g clip-path="url(#258569442e)"><g clip-path="url(#bfd4bd5678)"><g transform="matrix(1, 0, 0, 1, 117, 106)"><g clip-path="url(#49e22b3d8f)"><g clip-path="url(#b3a095ce9d)"><g clip-path="url(#a2f1d5b9cb)"><path fill="#005b82" d="M 21.546875 0.636719 L 51.527344 17.402344 L 30.179688 55.582031 L 0.199219 38.816406 Z M 21.546875 0.636719 " fill-opacity="1" fill-rule="nonzero"/></g></g></g></g></g></g><g clip-path="url(#1a34136a85)"><g clip-path="url(#ad766e3a43)"><g transform="matrix(1, 0, 0, 1, 168, 110)"><g clip-path="url(#9d27d380f2)"><g clip-path="url(#9f645c9f65)"><g clip-path="url(#2fd802943b)"><path fill="#005b82" d="M 21.90625 0.0898438 L 51.886719 16.851562 L 30.535156 55.03125 L 0.554688 38.265625 Z M 21.90625 0.0898438 " fill-opacity="1" fill-rule="nonzero"/></g></g></g></g></g></g><g fill="#ffafa3" fill-opacity="1"><g transform="translate(85.962121, 293.201006)"><g><path d="M 8.9375 -187.015625 L 52.625 -187.015625 L 52.625 -165.296875 C 54.675781 -173.304688 58.171875 -179.269531 63.109375 -183.1875 C 68.046875 -187.101562 75.023438 -189.0625 84.046875 -189.0625 C 91.378906 -189.0625 97.726562 -187.398438 103.09375 -184.078125 C 108.457031 -180.753906 112.242188 -176.195312 114.453125 -170.40625 C 118.203125 -176.875 122.375 -181.597656 126.96875 -184.578125 C 131.570312 -187.566406 137.960938 -189.0625 146.140625 -189.0625 C 160.785156 -189.0625 170.957031 -184.585938 176.65625 -175.640625 C 182.363281 -166.703125 185.21875 -153.71875 185.21875 -136.6875 L 184.71875 0 L 139.75 0 L 139.75 -137.453125 C 139.75 -149.546875 136.679688 -155.59375 130.546875 -155.59375 C 126.296875 -155.59375 123.234375 -153.503906 121.359375 -149.328125 C 119.484375 -145.160156 118.546875 -140.179688 118.546875 -134.390625 L 118.546875 0 L 73.828125 0 L 73.828125 -137.453125 C 73.828125 -142.734375 73.273438 -146.988281 72.171875 -150.21875 C 71.066406 -153.457031 68.726562 -155.078125 65.15625 -155.078125 C 60.550781 -155.078125 57.3125 -152.816406 55.4375 -148.296875 C 53.5625 -143.785156 52.625 -138.378906 52.625 -132.078125 L 52.625 0 L 8.9375 0 Z M 8.9375 -187.015625 "/></g></g></g></svg>